<svg xmlns="http://www.w3.org/2000/svg" fill="none" viewBox="0 0 817 687"><path fill="gray" d="M0 101h792v561H0V101Z"/><mask id="a" width="792" height="561" x="25.032" y="126" fill="#000" maskUnits="userSpaceOnUse"><path fill="#fff" d="M25.032 126h792v561h-792z"/><path d="M25.032 126H792v536H25.032V126Z"/></mask><path fill="#fff" d="M25.032 126H792v536H25.032V126Z"/><path fill="#000" d="M792 662v25h25v-25h-25Zm-25-536v536h50V126h-50Zm25 511H25.032v50H792v-50Z" mask="url(#a)"/><mask id="b" width="767" height="536" x="50.063" y="151" fill="#000" maskUnits="userSpaceOnUse"><path fill="#fff" d="M50.063 151h767v536h-767z"/><path d="M50.063 151H792v511H50.063V151Z"/></mask><path fill="#FED972" d="M50.063 151H792v511H50.063V151Z"/><path fill="#000" d="M792 662v25h25v-25h-25Zm-25-511v511h50V151h-50Zm25 486H50.063v50H792v-50Z" mask="url(#b)"/><path fill="gray" d="M380.371 50H150.568L125 101h280.871l-25.5-51Z"/><path fill="gray" d="M280.371 50H50.568L25 101h280.871l-25.5-51Z"/><path fill="gray" d="M330.372 0H100.569L75.001 51h280.871l-25.5-51Z"/><path fill="gray" d="M305.372 0H75.569L50.001 51h280.871l-25.5-51Z"/><path fill="gray" d="M125.501 0h229.803l25.568 51H100.001l25.5-51Z"/><path fill="#fff" d="M75.501 50h229.803l25.568 51H50.001l25.5-51Z"/><path fill="silver" d="M355.371 50H125.568L100 101h280.871l-25.5-51Z"/><path fill="silver" d="M100.501 25h242.303l25.568 51H100.501V25Z"/><path fill="#fff" d="M342.784 25H88.07L62.5 76l267.871-26 12.412-25Z"/><path fill="#FED972" d="M330.372 50H100.569l-25.568 51h280.871l-25.5-51Z"/></svg>