<svg xmlns="http://www.w3.org/2000/svg" fill="none" viewBox="0 0 817 911"><path fill="gray" d="M380.371 274H150.568L125 325h280.871l-25.5-51Z"/><path fill="gray" d="M280.371 274H50.568L25 325h280.871l-25.5-51Z"/><path fill="gray" d="M330.372 224H100.569l-25.568 51h280.871l-25.5-51Z"/><path fill="gray" d="M305.372 224H75.569l-25.568 51h280.871l-25.5-51Z"/><path fill="gray" d="M125.501 224h229.803l25.568 51H100.001l25.5-51Z"/><path fill="#fff" d="M75.501 274h229.803l25.568 51H50.001l25.5-51Z"/><path fill="silver" d="M355.371 274H125.568L100 325h280.871l-25.5-51Z"/><path fill="silver" d="M100.501 249h242.303l25.568 51H100.501v-51Z"/><path fill="#fff" d="M342.784 249H88.07L62.5 300l267.871-26 12.412-25Z"/><path fill="#FED972" d="M330.372 274H100.569l-25.568 51h280.871l-25.5-51Z"/><path fill="#E5D3A5" stroke="#322213" stroke-width="10" d="m36.212 451.375-1.44 4.788 4.79 1.439 620.064 186.314 4.788 1.439 1.439-4.789 101.195-336.782.596-1.984-.981-1.824-71.972-133.801-.981-1.824-1.984-.596-517.177-155.4-4.789-1.438-1.439 4.789-132.11 439.669Z"/><path fill="#966F38" d="m641.532 281.026 35.037-116.605 14.061 4.225 71.835 133.013-4.328 14.404-116.605-35.037Z"/><path fill="#322213" d="m650.452 276.228 34.522-114.89 7.44 6.349 74.646 136.101-.003 7.477-116.605-35.037Z"/><path fill="#F0E5C8" d="M762.259 302.345 659.372 271.43l30.915-102.887 71.972 133.802Z"/><path fill="gray" d="M0 325h792v561H0V325Z"/><mask id="a" width="792" height="561" x="25.032" y="350" fill="#000" maskUnits="userSpaceOnUse"><path fill="#fff" d="M25.032 350h792v561h-792z"/><path d="M25.032 350H792v536H25.032V350Z"/></mask><path fill="#fff" d="M25.032 350H792v536H25.032V350Z"/><path fill="#000" d="M792 886v25h25v-25h-25Zm-25-536v536h50V350h-50Zm25 511H25.032v50H792v-50Z" mask="url(#a)"/><mask id="b" width="767" height="536" x="50.063" y="375" fill="#000" maskUnits="userSpaceOnUse"><path fill="#fff" d="M50.063 375h767v536h-767z"/><path d="M50.063 375H792v511H50.063V375Z"/></mask><path fill="#FED972" d="M50.063 375H792v511H50.063V375Z"/><path fill="#000" d="M792 886v25h25v-25h-25Zm-25-511v511h50V375h-50Zm25 486H50.063v50H792v-50Z" mask="url(#b)"/></svg>