<svg xmlns="http://www.w3.org/2000/svg" fill="none" viewBox="0 0 822 776"><mask id="a" width="668" height="586" x="153" y="190" fill="#000" maskUnits="userSpaceOnUse"><path fill="#fff" d="M153 190h668v586H153z"/><path d="M153 190h643v561H153V190Z"/></mask><path fill="#FED972" d="M153 190h643v561H153V190Z"/><path fill="#000" d="M796 751v25h25v-25h-25Zm-25-561v561h50V190h-50Zm25 536H153v50h643v-50Z" mask="url(#a)"/><path fill="gray" d="M103 190h25v561h-25V190Zm381 0h312v561H484V190Z"/><path fill="#fff" d="M128 190h25v561h-25V190Zm318.366 25H796v25H457.5l-11.134-25Z"/><mask id="b" width="668" height="536" x="153" y="240" fill="#000" maskUnits="userSpaceOnUse"><path fill="#fff" d="M153 240h668v536H153z"/><path d="M153 240h643v511H153V240Z"/></mask><path fill="#FED972" d="M153 240h643v511H153V240Z"/><path fill="#000" d="M796 751v25h25v-25h-25Zm-25-511v511h50V240h-50Zm25 486H153v50h643v-50Z" mask="url(#b)"/><path fill="gray" d="M458.371 139H228.568L203 190h280.871l-25.5-51Z"/><path fill="gray" d="M470.87 164 450 173.5l20.87 41.5h25.5l-25.5-51Zm-112.499-25H128.568L103 190h280.871l-25.5-51Z"/><path fill="gray" d="M408.372 89H178.569l-25.568 51h280.871l-25.5-51Z"/><path fill="gray" d="M383.372 89H153.569l-25.568 51h280.871l-25.5-51Z"/><path fill="gray" d="M203.501 89h229.803l25.568 51H178.001l25.5-51Z"/><path fill="#fff" d="M153.501 139h229.803l25.568 51H128.001l25.5-51Z"/><path fill="silver" d="M433 139.5H203.197L190.258 215h280.871L433 139.5Z"/><path fill="silver" d="M178.501 114h242.303l25.568 51H178.501v-51Z"/><path fill="#fff" d="M420.784 114H166.069l-25.568 51 267.871-26 12.412-25Z"/><path fill="#FED972" d="M408.372 139H178.569l-25.568 51h280.871l-25.5-51Z"/><path fill="#FED972" d="M420.87 164H191.067l-25.568 51H446.37l-25.5-51Z"/><path fill="#E5D3A5" stroke="#322213" stroke-width="10" d="m111.355 390.817-1.851 4.645 4.645 1.851 534.828 213.093 4.645 1.851 1.85-4.645 115.74-290.487.767-1.924-.818-1.903-53.386-124.102-.818-1.902-1.924-.767L268.949 8.792l-4.645-1.85-1.851 4.644-151.098 379.231Z"/><path fill="#966F38" d="m661.277 287.034 40.073-100.576 12.128 4.832 53.325 123.393-4.95 12.424-100.576-40.073Z"/><path fill="#322213" d="m669.55 283.475 39.484-99.097 6.099 6.2 55.576 126.346-.583 6.624-100.576-40.073Z"/><path fill="#F0E5C8" d="m766.567 315.274-88.743-35.358 35.358-88.744 53.385 124.102Z"/><path fill="#D9D9D9" d="M713 318H22l86 433h713L713 318Z"/><path fill="#000" d="M55 343h664.032l101.999 408h-690L55 343Z"/><path fill="gray" d="M0 343h664.032l101.999 383h-690L0 343Z"/><path fill="#fff" d="M27 343h662.032L797.5 750.5H108L27 343Z"/><path fill="#000" d="M35 393h664.032l101.999 383h-690L35 393Z"/><path fill="gray" d="M5 368h664.032l101.999 383h-690L5 368Z"/><path fill="#FED972" d="M32 368h664.032l101.999 383h-690L32 368Z"/></svg>