<svg xmlns="http://www.w3.org/2000/svg" fill="none" viewBox="0 0 817 702"><path fill="gray" d="M380.371 65H150.568L125 116h280.871l-25.5-51Z"/><path fill="gray" d="M280.371 65H50.568L25 116h280.871l-25.5-51Z"/><path fill="gray" d="M330.372 15H100.569L75.001 66h280.871l-25.5-51Z"/><path fill="gray" d="M305.372 15H75.569L50.001 66h280.871l-25.5-51Z"/><path fill="gray" d="M125.501 15h229.803l25.568 51H100.001l25.5-51Z"/><path fill="#fff" d="M75.501 65h229.803l25.568 51H50.001l25.5-51Z"/><path fill="silver" d="M355.371 65H125.568L100 116h280.871l-25.5-51Z"/><path fill="silver" d="M100.501 40h242.303l25.568 51H100.501V40Z"/><path fill="#fff" d="M342.784 40H88.07L62.5 91l267.871-26 12.412-25Z"/><path fill="#FED972" d="M330.372 65H100.569l-25.568 51h280.871l-25.5-51Z"/><path fill="#E5D3A5" stroke="#322213" stroke-width="10" d="M77 469.46v5h657.451V115.731l-1.465-1.464L625.555 6.836l-1.464-1.465H77V469.46Z"/><path fill="#966F38" d="M607.696 132.127V10.372h14.682l107.073 106.714v15.041H607.696Z"/><path fill="#322213" d="M614.858 124.965V5l8.952 3.94 110.654 108.863 2.149 7.162H614.858Z"/><path fill="#F0E5C8" d="M729.451 117.803H622.02V10.372l107.431 107.431Z"/><path fill="gray" d="M0 116h792v561H0V116Z"/><mask id="a" width="792" height="561" x="25.032" y="141" fill="#000" maskUnits="userSpaceOnUse"><path fill="#fff" d="M25.032 141h792v561h-792z"/><path d="M25.032 141H792v536H25.032V141Z"/></mask><path fill="#fff" d="M25.032 141H792v536H25.032V141Z"/><path fill="#000" d="M792 677v25h25v-25h-25Zm-25-536v536h50V141h-50Zm25 511H25.032v50H792v-50Z" mask="url(#a)"/><mask id="b" width="767" height="536" x="50.063" y="166" fill="#000" maskUnits="userSpaceOnUse"><path fill="#fff" d="M50.063 166h767v536h-767z"/><path d="M50.063 166H792v511H50.063V166Z"/></mask><path fill="#FED972" d="M50.063 166H792v511H50.063V166Z"/><path fill="#000" d="M792 677v25h25v-25h-25Zm-25-511v511h50V166h-50Zm25 486H50.063v50H792v-50Z" mask="url(#b)"/></svg>