<svg xmlns="http://www.w3.org/2000/svg" fill="none" viewBox="0 0 822 687"><mask id="a" width="668" height="586" x="153" y="101" fill="#000" maskUnits="userSpaceOnUse"><path fill="#fff" d="M153 101h668v586H153z"/><path d="M153 101h643v561H153V101Z"/></mask><path fill="#FED972" d="M153 101h643v561H153V101Z"/><path fill="#000" d="M796 662v25h25v-25h-25Zm-25-561v561h50V101h-50Zm25 536H153v50h643v-50Z" mask="url(#a)"/><path fill="gray" d="M103 101h25v561h-25V101Zm381 0h312v561H484V101Z"/><path fill="#fff" d="M128 101h25v561h-25V101Zm318.366 25H796v25H457.5l-11.134-25Z"/><mask id="b" width="668" height="536" x="153" y="151" fill="#000" maskUnits="userSpaceOnUse"><path fill="#fff" d="M153 151h668v536H153z"/><path d="M153 151h643v511H153V151Z"/></mask><path fill="#FED972" d="M153 151h643v511H153V151Z"/><path fill="#000" d="M796 662v25h25v-25h-25Zm-25-511v511h50V151h-50Zm25 486H153v50h643v-50Z" mask="url(#b)"/><path fill="gray" d="M458.371 50H228.568L203 101h280.871l-25.5-51Z"/><path fill="gray" d="M470.87 75 450 84.5l20.87 41.5h25.5l-25.5-51ZM358.371 50H128.568L103 101h280.871l-25.5-51Z"/><path fill="gray" d="M408.372 0H178.569l-25.568 51h280.871l-25.5-51Z"/><path fill="gray" d="M383.372 0H153.569l-25.568 51h280.871l-25.5-51Z"/><path fill="gray" d="M203.501 0h229.803l25.568 51H178.001l25.5-51Z"/><path fill="#fff" d="M153.501 50h229.803l25.568 51H128.001l25.5-51Z"/><path fill="silver" d="M433 50.5H203.197L190.258 126h280.871L433 50.5Z"/><path fill="silver" d="M178.501 25h242.303l25.568 51H178.501V25Z"/><path fill="#fff" d="M420.784 25H166.069l-25.568 51 267.871-26 12.412-25Z"/><path fill="#FED972" d="M408.372 50H178.569l-25.568 51h280.871l-25.5-51Z"/><path fill="#FED972" d="M420.87 75H191.067l-25.568 51H446.37l-25.5-51Z"/><path fill="#D9D9D9" d="M713 229H22l86 433h713L713 229Z"/><path fill="#000" d="M55 254h664.032l101.999 408h-690L55 254Z"/><path fill="gray" d="M0 254h664.032l101.999 383h-690L0 254Z"/><path fill="#fff" d="M27 254h662.032L797.5 661.5H108L27 254Z"/><path fill="#000" d="M35 304h664.032l101.999 383h-690L35 304Z"/><path fill="gray" d="M5 279h664.032l101.999 383h-690L5 279Z"/><path fill="#FED972" d="M32 279h664.032l101.999 383h-690L32 279Z"/></svg>