<svg xmlns="http://www.w3.org/2000/svg" fill="none" viewBox="0 0 24 24"><path fill="#000" fill-rule="evenodd" d="M12.785.45c1.039 0 1.932.715 2.127 1.705l.087.44c.342 1.73 2.187 2.762 3.903 2.184l.436-.147c.982-.33 2.067.062 2.587.934l.785 1.318c.52.872.326 1.98-.46 2.639l-.35.293a2.83 2.83 0 0 0 0 4.368l.35.293c.787.66.98 1.767.46 2.64l-.785 1.317c-.52.872-1.605 1.264-2.587.934l-.436-.147c-1.716-.578-3.561.454-3.903 2.184l-.087.44c-.195.99-1.088 1.705-2.127 1.705h-1.57c-1.039 0-1.932-.716-2.127-1.705L9 21.405c-.342-1.73-2.187-2.762-3.903-2.184l-.436.146c-.982.331-2.067-.06-2.587-.933l-.785-1.318a2.055 2.055 0 0 1 .46-2.639l.35-.293a2.83 2.83 0 0 0 0-4.368l-.35-.293a2.055 2.055 0 0 1-.46-2.64l.785-1.317c.52-.872 1.605-1.264 2.587-.934l.436.147C6.813 5.357 8.658 4.324 9 2.595l.087-.44C9.283 1.165 10.176.45 11.215.45h1.57ZM12 15.3a3.3 3.3 0 1 0 0-6.6 3.3 3.3 0 0 0 0 6.6Z" clip-rule="evenodd"/></svg>