<svg xmlns="http://www.w3.org/2000/svg" fill="none" viewBox="0 0 488 64">
    <path fill="#fff"
          d="M0 64v-8h24c2.167 0 4.042-.77 5.625-2.313C31.208 52.105 32 50.209 32 48c0-2.167-.792-4.042-2.375-5.625C28.042 40.792 26.167 40 24 40h-8c-4.458 0-8.25-1.563-11.375-4.688C1.542 32.23 0 28.459 0 24c0-4.417 1.563-8.188 4.688-11.313C7.77 9.563 11.541 8 16 8h32v8H24c-2.208 0-4.104.792-5.688 2.375C16.771 19.958 16 21.833 16 24c0 2.208.77 4.104 2.313 5.688C19.895 31.229 21.791 32 24 32h8c4.417 0 8.188 1.583 11.313 4.75C46.437 39.833 48 43.583 48 48c0 4.458-1.583 8.25-4.75 11.375C40.167 62.458 36.417 64 32 64H0Zm80-32c2.167 0 4.042-.77 5.625-2.313C87.208 28.105 88 26.209 88 24c0-2.167-.792-4.042-2.375-5.625C84.042 16.792 82.167 16 80 16h-8v16h8ZM56 64V8h32c4.417 0 8.188 1.583 11.313 4.75C102.438 15.833 104 19.583 104 24c0 4.458-1.583 8.25-4.75 11.375C96.167 38.458 92.417 40 88 40H72v24H56Zm56 0V16h16v48h-16Zm0-56V0h16v8h-16Zm56 48V16h-8c-2.208 0-4.104.792-5.688 2.375C152.771 19.958 152 21.833 152 24v24c0 2.208.771 4.104 2.312 5.688C155.896 55.228 157.792 56 160 56h8Zm-16 8c-4.458 0-8.229-1.542-11.312-4.625C137.562 56.25 136 52.458 136 48V24c0-4.417 1.542-8.167 4.625-11.25C143.75 9.583 147.542 8 152 8h16V0h16v64h-32Zm56-2.063h-.062.062ZM216 40c2.167 0 4.042-.77 5.625-2.313C223.208 36.105 224 34.209 224 32v-8c0-2.167-.792-4.042-2.375-5.625C220.042 16.792 218.167 16 216 16c-2.208 0-4.104.792-5.688 2.375C208.771 19.958 208 21.833 208 24v16h8Zm-8 24c-4.458 0-8.25-1.563-11.375-4.688C193.542 56.23 192 52.459 192 48V24c0-4.417 1.562-8.188 4.688-11.313C199.771 9.563 203.542 8 208 8h16c4.417 0 8.188 1.583 11.312 4.75C238.438 15.833 240 19.583 240 24v8c0 4.458-1.583 8.25-4.75 11.375C232.167 46.458 228.417 48 224 48h-16c0 2.208.771 4.104 2.312 5.688C211.896 55.228 213.792 56 216 56h24v8h-32Zm40 0V8h32c4.417 0 8.188 1.583 11.312 4.75C294.438 15.833 296 19.583 296 24h-16c0-2.167-.792-4.042-2.375-5.625C276.042 16.792 274.167 16 272 16h-8v48h-16Zm72-2.063h-.062.062ZM320 64c-4.458 0-8.25-1.563-11.375-4.688C305.542 56.23 304 52.459 304 48V24c0-4.417 1.562-8.188 4.688-11.313C311.771 9.563 315.542 8 320 8h32v8h-24c-2.208 0-4.104.792-5.688 2.375C320.771 19.958 320 21.833 320 24v24c0 2.208.771 4.104 2.312 5.688C323.896 55.228 325.792 56 328 56h24v8h-32Zm40 0V0h16v8h16c4.417 0 8.188 1.583 11.312 4.75C406.438 15.833 408 19.583 408 24v40h-16V24c0-2.167-.792-4.042-2.375-5.625C388.042 16.792 386.167 16 384 16h-8v48h-16Zm56 0V16h16v48h-16Zm0-56V0h16v8h-16Zm48 24c2.167 0 4.042-.77 5.625-2.313C471.208 28.105 472 26.209 472 24c0-2.167-.792-4.042-2.375-5.625C468.042 16.792 466.167 16 464 16h-8v16h8Zm-24 32V8h32c4.417 0 8.188 1.583 11.312 4.75C486.438 15.833 488 19.583 488 24c0 4.458-1.583 8.25-4.75 11.375C480.167 38.458 476.417 40 472 40h-16v24h-16Z"/>
</svg>