<svg xmlns="http://www.w3.org/2000/svg" viewBox="0 0 32 32"><g fill="none" fill-rule="evenodd"><path d="M0 0h32v32H0z"/><path fill="#FFF" fill-rule="nonzero" d="M12 0c5.415 0 9.993 3.587 11.486 8.514C28.413 10.007 32 14.584 32 20c0 6.627-5.373 12-12 12-5.415 0-9.993-3.587-11.486-8.514C3.587 21.993 0 17.416 0 12 0 5.373 5.373 0 12 0zm11.94 10.806.026.285c.023.3.034.603.034.909 0 6.627-5.373 12-12 12-.403 0-.8-.02-1.193-.059A10.002 10.002 0 0 0 20 30c5.523 0 10-4.477 10-10 0-4.124-2.496-7.664-6.06-9.194zM20 10c-5.523 0-10 4.477-10 10 0 .626.057 1.238.167 1.832.595.11 1.207.168 1.833.168 5.523 0 10-4.477 10-10 0-.626-.057-1.238-.167-1.832A10.029 10.029 0 0 0 20 10zm-8-8C6.477 2 2 6.477 2 12c0 4.124 2.496 7.664 6.06 9.194A11.8 11.8 0 0 1 8 20c0-6.627 5.373-12 12-12 .403 0 .8.02 1.193.059A10.002 10.002 0 0 0 12 2z"/></g></svg>